name Walk7.mot
datacolumns 19
datarows 25
range 3.53800000 3.56200000
endheader

                time	   L_ground_force_vx	   L_ground_force_vy	   L_ground_force_vz	   L_ground_force_px	   L_ground_force_py	   L_ground_force_pz	   R_ground_force_vx	   R_ground_force_vy	   R_ground_force_vz	   R_ground_force_px	   R_ground_force_py	   R_ground_force_pz	   L_ground_torque_x	   L_ground_torque_y	   L_ground_torque_z	   R_ground_torque_x	   R_ground_torque_y	   R_ground_torque_z	
          3.53800000	          0.00000000	          0.00000000	          0.00000000	          0.00000000	          0.00000000	          0.00000000	          6.69534091	         23.40378585	          3.89054428	          0.28162853	          0.00000000	          0.03865280	          0.00000000	          0.00000000	          0.00000000	          0.00000000	         -1.70954716	          0.00000000	
          3.53900000	          0.00000000	          0.00000000	         -0.00000000	          0.00000000	          0.00000000	          0.00000000	          5.98253755	         20.86964011	          3.71492502	          0.27009235	          0.00000000	          0.03710090	          0.00000000	          0.00000000	          0.00000000	          0.00000000	         -1.54966508	          0.00000000	
          3.54000000	          0.00000000	          0.00000000	         -0.00000000	          0.00000000	          0.00000000	          0.00000000	          5.30773102	         18.47218638	          3.54020665	          0.25851969	          0.00000000	          0.03554126	          0.00000000	          0.00000000	          0.00000000	          0.00000000	         -1.39752358	          0.00000000	
          3.54100000	          0.00000000	          0.00000000	         -0.00000000	          0.00000000	          0.00000000	          0.00000000	          4.67024236	         16.20878439	          3.36696688	          0.24695457	          0.00000000	          0.03398000	          0.00000000	          0.00000000	          0.00000000	          0.00000000	         -1.25303721	          0.00000000	
          3.54200000	          0.00000000	          0.00000000	         -0.00000000	          0.00000000	          0.00000000	          0.00000000	          4.06930788	         14.07657705	          3.19573370	          0.23543959	          0.00000000	          0.03242308	          0.00000000	          0.00000000	          0.00000000	          0.00000000	         -1.11610074	          0.00000000	
          3.54300000	          0.00000000	          0.00000000	         -0.00000000	         -0.00000000	          0.00000000	          0.00000000	          3.50409039	         12.07246674	          3.02698355	          0.22401398	          0.00000000	          0.03087602	          0.00000000	          0.00000000	          0.00000000	          0.00000000	         -0.98658969	          0.00000000	
          3.54400000	          0.00000000	          0.00000000	         -0.00000000	         -0.00000000	          0.00000000	          0.00000000	          2.97368890	         10.19313520	          2.86114296	          0.21271333	          0.00000000	          0.02934382	          0.00000000	          0.00000000	          0.00000000	          0.00000000	         -0.86436212	          0.00000000	
          3.54500000	          0.00000000	          0.00000000	         -0.00000000	         -0.00000000	          0.00000000	         -0.00000000	          2.47714747	          8.43507477	          2.69859125	          0.20156971	          0.00000000	          0.02783101	          0.00000000	          0.00000000	          0.00000000	          0.00000000	         -0.74926062	          0.00000000	
          3.54600000	          0.00000000	          0.00000000	         -0.00000000	         -0.00000000	          0.00000000	         -0.00000000	          2.01346350	          6.79461777	          2.53966300	          0.19061189	          0.00000000	          0.02634167	          0.00000000	          0.00000000	          0.00000000	          0.00000000	         -0.64111425	          0.00000000	
          3.54700000	          0.00000000	          0.00000000	         -0.00000000	         -0.00000000	          0.00000000	         -0.00000000	          1.58159546	          5.26796398	          2.38465070	          0.17986547	          0.00000000	          0.02487941	          0.00000000	          0.00000000	          0.00000000	          0.00000000	         -0.53974031	          0.00000000	
          3.54800000	          0.00000000	          0.00000000	         -0.00000000	         -0.00000000	          0.00000000	         -0.00000000	          1.18047017	          3.85120624	          2.23380716	          0.16935308	          0.00000000	          0.02344747	          0.00000000	          0.00000000	          0.00000000	          0.00000000	         -0.44494606	          0.00000000	
          3.54900000	          0.00000000	          0.00000000	         -0.00000000	         -0.00000000	          0.00000000	         -0.00000000	          0.80898949	          2.54035433	          2.08734792	          0.15909455	          0.00000000	          0.02204867	          0.00000000	          0.00000000	          0.00000000	          0.00000000	         -0.35653026	          0.00000000	
          3.55000000	          0.00000000	          0.00000000	         -0.00000000	         -0.00000000	          0.00000000	         -0.00000000	          0.46603666	          1.33135711	          1.94545365	          0.14910707	          0.00000000	          0.02068549	          0.00000000	          0.00000000	          0.00000000	          0.00000000	         -0.27428469	          0.00000000	
          3.55100000	          0.00000000	          0.00000000	         -0.00000000	         -0.00000000	          0.00000000	         -0.00000000	          0.15048207	          0.22012297	          1.80827241	          0.13940532	          0.00000000	          0.01936004	          0.00000000	          0.00000000	          0.00000000	          0.00000000	         -0.19799553	          0.00000000	
          3.55200000	          0.00000000	          0.00000000	         -0.00000000	         -0.00000000	          0.00000000	         -0.00000000	         -0.13881140	         -0.79746120	          1.67592185	          0.13000168	          0.00000000	          0.01807414	          0.00000000	          0.00000000	          0.00000000	          0.00000000	         -0.12744461	          0.00000000	
          3.55300000	          0.00000000	          0.00000000	         -0.00000000	         -0.00000000	          0.00000000	         -0.00000000	         -0.40298339	         -1.72551271	          1.54849137	          0.12090632	          0.00000000	          0.01682927	          0.00000000	          0.00000000	          0.00000000	          0.00000000	         -0.06241063	          0.00000000	
          3.55400000	          0.00000000	          0.00000000	         -0.00000000	         -0.00000000	          0.00000000	         -0.00000000	         -0.64317160	         -2.56813710	          1.42604416	          0.11212742	          0.00000000	          0.01562665	          0.00000000	          0.00000000	          0.00000000	          0.00000000	         -0.00267029	          0.00000000	
          3.55500000	          0.00000000	          0.00000000	         -0.00000000	         -0.00000000	          0.00000000	         -0.00000000	         -0.86050761	         -3.32941367	          1.30861924	          0.10367123	          0.00000000	          0.01446723	          0.00000000	          0.00000000	          0.00000000	          0.00000000	          0.05200078	          0.00000000	
          3.55600000	          0.00000000	          0.00000000	         -0.00000000	         -0.00000000	          0.00000000	         -0.00000000	         -1.05611315	         -4.01338225	          1.19623331	          0.09554227	          0.00000000	          0.01335172	          0.00000000	          0.00000000	          0.00000000	          0.00000000	          0.10182698	          0.00000000	
          3.55700000	          0.00000000	          0.00000000	         -0.00000000	         -0.00000000	          0.00000000	         -0.00000000	         -1.23109668	         -4.62403133	          1.08888261	          0.08774343	          0.00000000	          0.01228060	          0.00000000	          0.00000000	          0.00000000	          0.00000000	          0.14703197	          0.00000000	
          3.55800000	          0.00000000	          0.00000000	         -0.00000000	         -0.00000000	          0.00000000	         -0.00000000	         -1.38655036	         -5.16528735	          0.98654468	          0.08027613	          0.00000000	          0.01125415	          0.00000000	          0.00000000	          0.00000000	          0.00000000	          0.18783785	          0.00000000	
          3.55900000	          0.00000000	          0.00000000	         -0.00000000	         -0.00000000	          0.00000000	         -0.00000000	         -1.52354727	         -5.64100511	          0.88918003	          0.07314038	          0.00000000	          0.01027245	          0.00000000	          0.00000000	          0.00000000	          0.00000000	          0.22446444	          0.00000000	
          3.56000000	          0.00000000	          0.00000000	         -0.00000000	         -0.00000000	          0.00000000	         -0.00000000	         -1.64313900	         -6.05495931	          0.79673372	          0.06633496	          0.00000000	          0.00933540	          0.00000000	          0.00000000	          0.00000000	          0.00000000	          0.25712869	          0.00000000	
          3.56100000	          0.00000000	          0.00000000	         -0.00000000	         -0.00000000	          0.00000000	         -0.00000000	         -1.74635351	         -6.41083712	          0.70913690	          0.05985750	          0.00000000	          0.00844274	          0.00000000	          0.00000000	          0.00000000	          0.00000000	          0.28604406	          0.00000000	
          3.56200000	          0.00000000	          0.00000000	         -0.00000000	         -0.00000000	          0.00000000	         -0.00000000	         -1.83419322	         -6.71223166	          0.62630827	          0.05370460	          0.00000000	          0.00759408	          0.00000000	          0.00000000	          0.00000000	          0.00000000	          0.31142003	          0.00000000	
